<svg width="55" height="55" viewBox="0 0 55 55" fill="none" xmlns="http://www.w3.org/2000/svg">
<path d="M17.875 23.375V33" stroke="currentColor" stroke-width="2.5" stroke-linecap="round" stroke-linejoin="round"/>
<path d="M18.2188 22.6875C20.6868 22.6875 22.6876 20.6868 22.6876 18.2188C22.6876 15.7508 20.6868 13.75 18.2188 13.75C15.7508 13.75 13.75 15.7508 13.75 18.2188C13.75 20.6868 15.7508 22.6875 18.2188 22.6875Z" stroke="currentColor" stroke-width="2.5" stroke-linecap="round" stroke-linejoin="round"/>
<path d="M17.875 41.25C20.1531 41.25 21.9999 39.4032 21.9999 37.125C21.9999 34.8469 20.1531 33 17.875 33C15.5968 33 13.75 34.8469 13.75 37.125C13.75 39.4032 15.5968 41.25 17.875 41.25Z" stroke="currentColor" stroke-width="2.5" stroke-linecap="round" stroke-linejoin="round"/>
<path d="M37.125 41.25C39.4032 41.25 41.25 39.4032 41.25 37.125C41.25 34.8469 39.4032 33 37.125 33C34.8469 33 33.0001 34.8469 33.0001 37.125C33.0001 39.4032 34.8469 41.25 37.125 41.25Z" stroke="currentColor" stroke-width="2.5" stroke-linecap="round" stroke-linejoin="round"/>
<path d="M18.0583 23.375C18.6771 25.7812 20.8771 27.5687 23.4666 27.5458L28.1875 27.5229C31.7854 27.5 34.8563 29.8146 35.9792 33.0458" stroke="currentColor" stroke-width="2.5" stroke-linecap="round" stroke-linejoin="round"/>
<path d="M20.625 50.4166H34.375C45.8333 50.4166 50.4167 45.8333 50.4167 34.375V20.625C50.4167 9.16665 45.8333 4.58331 34.375 4.58331H20.625C9.16667 4.58331 4.58334 9.16665 4.58334 20.625V34.375C4.58334 45.8333 9.16667 50.4166 20.625 50.4166Z" stroke="currentColor" stroke-width="2.5" stroke-linecap="round" stroke-linejoin="round"/>
</svg>
