<svg width="61" height="61" viewBox="0 0 61 61" fill="none" xmlns="http://www.w3.org/2000/svg">
<path d="M47.0539 17.2935L47.6257 16.4281L48.6246 17.0342L49.0669 17.3507C50.1344 18.1742 52.3799 20.2787 52.8641 23.7709C53.7143 23.6184 54.5721 23.5422 55.4299 23.5422C57.4658 23.5422 58.8345 24.0149 59.6122 24.4076L60.0126 24.6249L60.2718 24.7965L61 25.3912L60.7484 26.1537C60.3573 27.1991 59.7462 28.1482 58.9565 28.9369C57.8509 30.0768 55.9065 31.4226 52.8222 31.598L52.1436 31.6171H51.5793C50.1687 35.3419 48.2739 39.5394 45.0904 43.3062C43.2015 45.5445 40.961 47.4606 38.4567 48.9792C35.4543 50.7604 32.1665 52.009 28.7386 52.6697C26.2834 53.1462 23.79 53.3826 21.2928 53.375C15.7647 53.375 10.8847 52.277 7.88424 50.3555C5.20405 48.6437 3.1453 45.8491 1.76136 42.0557C0.550232 38.5894 -0.0446039 34.9378 0.00380152 31.2663C-0.00247135 30.7956 0.160269 30.3382 0.462473 29.9772C0.764677 29.6163 1.18631 29.3757 1.6508 29.2991L1.91005 29.28H42.0938L42.4446 29.2533L43.0126 29.1923C43.9886 29.0627 45.4755 28.7729 46.5201 28.1629C45.2696 26.0927 44.9151 23.6718 45.4984 21.0946C45.7427 20.0195 46.1272 18.9813 46.6421 18.0064L47.0539 17.2935ZM11.0181 22.0515L11.1706 22.0782C11.2403 22.1042 11.303 22.146 11.3539 22.2002C11.4048 22.2544 11.4425 22.3197 11.4642 22.3908L11.4871 22.5433V27.5567L11.4642 27.7131C11.4422 27.7846 11.4038 27.8501 11.3522 27.9043C11.3006 27.9586 11.2372 28.0001 11.1668 28.0257L11.0181 28.0486H5.63486C5.53453 28.0472 5.43723 28.014 5.35704 27.9537C5.27684 27.8934 5.21792 27.8091 5.1888 27.7131L5.16211 27.5606V22.5395L5.1888 22.387C5.21031 22.3147 5.2484 22.2485 5.30003 22.1936C5.35165 22.1386 5.4154 22.0965 5.48618 22.0706L5.63486 22.0477L11.0181 22.0515ZM18.441 22.0515L18.5897 22.0782C18.6601 22.1038 18.7236 22.1453 18.7752 22.1995C18.8268 22.2538 18.8651 22.3193 18.8871 22.3908L18.91 22.5433V27.5567L18.8833 27.7131C18.8613 27.7846 18.823 27.8501 18.7714 27.9043C18.7198 27.9586 18.6563 28.0001 18.5859 28.0257L18.4372 28.0486H13.054C12.9538 28.0466 12.8568 28.0132 12.7767 27.9529C12.6966 27.8927 12.6376 27.8088 12.6079 27.7131L12.5812 27.5644V22.5433C12.5804 22.4413 12.6111 22.3415 12.6691 22.2576C12.7271 22.1737 12.8096 22.1097 12.9053 22.0744L13.054 22.0477L18.441 22.0515ZM25.9746 22.0515L26.1232 22.0782C26.1929 22.1042 26.2556 22.146 26.3065 22.2002C26.3574 22.2544 26.3952 22.3197 26.4168 22.3908L26.4435 22.5433V27.5567L26.4168 27.7131C26.3948 27.7846 26.3565 27.8501 26.3049 27.9043C26.2533 27.9586 26.1898 28.0001 26.1194 28.0257L25.9707 28.0486H20.5875C20.4872 28.0472 20.3899 28.014 20.3097 27.9537C20.2295 27.8934 20.1705 27.8091 20.1414 27.7131L20.1186 27.5606V22.5395L20.1414 22.387C20.1629 22.3147 20.201 22.2485 20.2526 22.1936C20.3043 22.1386 20.368 22.0965 20.4388 22.0706L20.5875 22.0477L25.9746 22.0515ZM33.4166 22.0515L33.5652 22.0782C33.6356 22.1038 33.6991 22.1453 33.7507 22.1995C33.8023 22.2538 33.8406 22.3193 33.8626 22.3908L33.8893 22.5433V27.5567C33.8901 27.6588 33.8594 27.7585 33.8014 27.8425C33.7434 27.9264 33.6609 27.9904 33.5652 28.0257L33.4127 28.0486H28.0333C27.933 28.0472 27.8357 28.014 27.7555 27.9537C27.6753 27.8934 27.6164 27.8091 27.5872 27.7131L27.5644 27.5606V22.5395L27.5872 22.387C27.6087 22.3147 27.6468 22.2485 27.6985 22.1936C27.7501 22.1386 27.8138 22.0965 27.8846 22.0706L28.0371 22.0477H33.4204L33.4166 22.0515ZM40.9272 22.0515L41.0759 22.0782C41.1462 22.1038 41.2097 22.1453 41.2613 22.1995C41.3129 22.2538 41.3512 22.3193 41.3732 22.3908L41.3961 22.5433V27.5567C41.3969 27.6588 41.3662 27.7585 41.3082 27.8425C41.2502 27.9264 41.1678 27.9904 41.072 28.0257L40.9234 28.0486H35.5401C35.4398 28.0472 35.3425 28.014 35.2623 27.9537C35.1821 27.8934 35.1232 27.8091 35.0941 27.7131L35.0712 27.5606V22.5395L35.0941 22.387C35.1156 22.3147 35.1536 22.2485 35.2053 22.1936C35.2569 22.1386 35.3206 22.0965 35.3914 22.0706L35.5439 22.0477H40.9234L40.9272 22.0515ZM18.4334 14.8382L18.5859 14.8649C18.6552 14.8906 18.7176 14.9318 18.7685 14.9853C18.8194 15.0388 18.8573 15.1033 18.8795 15.1737L18.9062 15.3301V20.3435C18.907 20.4455 18.8763 20.5453 18.8183 20.6292C18.7603 20.7131 18.6778 20.7771 18.5821 20.8124L18.4334 20.8391H13.054C12.9528 20.8367 12.8551 20.8021 12.7749 20.7404C12.6947 20.6787 12.6362 20.5931 12.6079 20.496L12.5812 20.3435V15.3301C12.5812 15.2287 12.6123 15.1298 12.6702 15.0466C12.7282 14.9634 12.8102 14.9 12.9053 14.8649L13.054 14.8382H18.4334ZM25.9669 14.8382L26.1194 14.8649C26.1887 14.8906 26.2511 14.9318 26.302 14.9853C26.3529 15.0388 26.3908 15.1033 26.413 15.1737L26.4397 15.3301V20.3435C26.4405 20.4455 26.4098 20.5453 26.3518 20.6292C26.2938 20.7131 26.2113 20.7771 26.1156 20.8124L25.9669 20.8391H20.5875C20.4863 20.8367 20.3886 20.8021 20.3084 20.7404C20.2282 20.6787 20.1697 20.5931 20.1414 20.496L20.1186 20.3435V15.3301L20.1414 15.1776C20.1635 15.106 20.2018 15.0405 20.2534 14.9863C20.305 14.932 20.3684 14.8905 20.4388 14.8649L20.5875 14.8382H25.9669ZM33.4127 14.8382C33.6186 14.8382 33.794 14.9793 33.8588 15.1737L33.8855 15.3301V20.3435C33.8863 20.4455 33.8556 20.5453 33.7976 20.6292C33.7396 20.7131 33.6571 20.7771 33.5614 20.8124L33.4089 20.8391H28.0333C27.9322 20.8367 27.8344 20.8021 27.7542 20.7404C27.674 20.6787 27.6155 20.5931 27.5872 20.496L27.5644 20.3435V15.3301L27.5872 15.1776C27.6093 15.106 27.6476 15.0405 27.6992 14.9863C27.7508 14.932 27.8143 14.8905 27.8846 14.8649L28.0371 14.8382H33.4204H33.4127ZM33.4127 7.625C33.6186 7.625 33.794 7.76606 33.8588 7.9605L33.8855 8.113V13.1302C33.8863 13.2323 33.8556 13.332 33.7976 13.416C33.7396 13.4999 33.6571 13.5639 33.5614 13.5992L33.4089 13.6221H28.0333C27.933 13.6207 27.8357 13.5875 27.7555 13.5272C27.6753 13.4669 27.6164 13.3826 27.5872 13.2866L27.5644 13.1341V8.113L27.5872 7.9605C27.6093 7.88895 27.6476 7.82348 27.6992 7.76923C27.7508 7.71499 27.8143 7.67345 27.8846 7.64788L28.0333 7.625H33.4166H33.4127Z" fill="black"/>
</svg>
