<svg width="61" height="61" viewBox="0 0 61 61" fill="none" xmlns="http://www.w3.org/2000/svg">
<path fill-rule="evenodd" clip-rule="evenodd" d="M17.3913 14.8308C17.1809 13.0081 18.8214 13.7807 18.6118 14.8797C18.3039 15.1725 17.7353 14.9323 17.3913 14.8308ZM19.344 14.489C19.7572 14.4468 20.1511 14.3849 20.2718 14.0497C19.7003 13.6974 18.8463 14.5667 19.1976 14.9775C19.3926 14.9609 19.2201 14.5769 19.344 14.489ZM13.8761 15.6119C14.2201 15.4519 14.7855 15.5123 14.9502 15.1726C13.9261 14.8159 12.0818 15.0792 11.7766 15.7584C12.5573 15.7102 13.2102 15.0907 13.8761 15.6119ZM11.5813 15.8074C11.3595 15.7608 11.2739 16.0128 11.3861 16.149C11.5595 16.1433 11.5826 15.9874 11.5813 15.8074ZM11.0442 16.7839C11.013 16.3182 9.8864 15.9463 9.77501 16.5886C9.87247 16.9533 10.7812 17.1879 11.0442 16.7839ZM9.14035 16.3446C8.90767 16.3555 8.78805 16.4807 8.65199 16.5886C8.82903 16.6918 9.22124 16.6549 9.14035 16.3446ZM8.55465 17.6625C9.41461 17.6021 9.67636 18.3929 10.4096 18.2972C10.5462 17.4461 8.79698 16.2753 8.55465 17.6625ZM20.174 21.9098C19.9176 21.0589 20.7027 20.3286 20.2227 19.6639C19.5581 19.7169 18.9834 22.8013 19.9298 22.7889C20.6094 22.7795 20.849 20.9139 20.9061 20.2991C20.4085 20.582 20.6253 21.5801 20.174 21.9098ZM12.0208 21.5685C12.0356 21.4394 11.9531 21.408 11.8255 21.4216C11.8288 21.5533 11.9371 21.6564 12.0208 21.5685ZM14.4132 22.9842C14.4226 22.6817 14.4107 22.4008 14.1692 22.3495C13.9853 22.3287 13.9963 22.5022 13.8761 22.5451C13.9431 22.8031 14.0794 22.9927 14.4132 22.9842ZM12.0697 24.5466C13.0057 24.6519 13.6325 25.3272 14.5107 25.3275C13.8104 24.856 13.0828 24.4121 11.972 24.3512C11.9366 24.4844 12.0689 24.4495 12.0697 24.5466ZM19.4417 25.2789C19.3689 24.9447 19.2239 24.6826 19.0513 24.4487C19.1148 24.7918 19.2024 25.111 19.4417 25.2789ZM14.0712 26.3528C13.4585 25.5329 12.4822 24.8184 11.3861 24.644C11.5409 25.9537 12.9968 25.9631 14.0712 26.3528ZM12.4115 26.6455C11.993 25.9413 11.2757 25.5355 10.4096 25.2789C10.8964 25.8838 11.3423 26.7855 12.4115 26.6455ZM10.1656 25.9624C10.3322 26.2518 10.7512 26.5476 10.6539 26.9387C10.2258 26.8136 10.0177 26.4682 9.57974 26.3529C9.8123 26.6759 10.6999 28.1077 11.2395 28.062C11.5839 28.0322 11.7396 27.652 11.6789 27.0367C11.415 26.4701 10.5749 26.2202 10.1656 25.9624ZM12.6555 27.2317C12.764 27.5301 12.8021 27.8986 13.1927 27.915C13.1262 27.5748 12.9275 27.3664 12.6555 27.2317ZM12.3137 27.3783C12.1316 27.3585 12.0274 27.417 12.0209 27.5733C12.0756 27.584 12.0969 27.6274 12.1184 27.6708C12.2745 27.6648 12.3336 27.5604 12.3137 27.3783ZM20.6622 28.501C20.7131 28.2251 20.7648 27.6935 20.6622 27.4268C20.5995 27.7011 20.3638 28.318 20.6622 28.501ZM17.2448 27.4757C17.2821 27.7642 17.1425 28.229 17.3912 28.3061C17.402 28.0925 17.4518 27.6114 17.2448 27.4757ZM19.5393 28.5987C19.3976 28.4731 19.1944 28.6629 19.0999 28.5501C19.0001 28.2269 19.0414 27.7626 18.7582 27.6223C18.7259 27.6223 18.6932 27.6223 18.6608 27.6223C18.2587 28.4551 18.2983 30.2443 19.0023 30.6978C19.1353 30.9231 19.1483 31.2682 19.4906 31.284C19.772 31.0606 19.8411 30.6259 19.8812 30.1608C19.2702 30.0324 19.8394 28.9791 19.5393 28.5987ZM21.0041 29.1354C21.0643 28.7032 21.4339 28.0745 21.1506 27.6223C21.057 28.0502 20.88 28.6532 21.0041 29.1354ZM12.4115 29.5266C12.4893 29.3034 12.4282 28.9249 12.2649 28.7941C12.151 29.0078 12.0848 29.5001 12.4115 29.5266ZM13.2901 29.7216C13.4873 29.8499 13.5024 30.16 13.7785 30.2098C14.122 29.7714 13.4704 28.9987 13.2901 29.7216ZM21.6387 30.6978C21.639 30.8475 21.4429 31.0522 21.5899 31.186C21.6182 31.065 21.7668 30.8134 21.6387 30.6978ZM22.0779 32.6019C22.0759 32.3765 22.1055 32.1194 21.9805 32.0164C21.9586 32.1902 21.8298 32.5751 22.0779 32.6019ZM15.8777 34.604C15.9067 34.7858 15.9364 34.9682 16.1217 34.9944C16.2415 34.8269 16.1531 34.5302 15.8777 34.604ZM18.0747 34.8482C18.1426 34.9771 18.3378 35.2332 18.4651 35.1406C18.3522 35.0573 18.2218 34.7354 18.0747 34.8482ZM22.7126 35.3853C22.5755 35.9666 22.9001 36.4962 23.1521 36.8499C23.2553 36.2832 23.2456 35.4716 22.7126 35.3853ZM23.9334 39.1438C24.0072 38.9962 24.0333 38.5413 23.8846 38.4612C23.756 38.6375 23.6414 39.0596 23.9334 39.1438ZM26.1299 41.4878C26.0593 41.1291 25.7782 40.7416 25.4955 40.7551C25.5944 41.1117 25.6115 41.5507 26.1299 41.4878ZM26.5698 42.1711C26.5718 42.397 26.5425 42.6547 26.6672 42.7567C26.6736 42.5233 26.6702 42.2983 26.5698 42.1711ZM10.4584 42.2201C10.4591 42.3989 10.5548 42.4817 10.6539 42.5619C10.6344 42.4019 10.6115 42.2464 10.4584 42.2201ZM28.3274 44.9049C28.2071 43.9843 27.7229 43.4271 27.1069 43.0014C27.195 43.9541 27.6619 44.5294 28.3274 44.9049ZM36.1878 49.7385C36.1581 49.7109 35.9559 49.6246 35.9435 49.7385C36.0169 49.795 36.1492 49.91 36.1878 49.7385ZM60.9405 53.3514C60.9405 53.5308 60.9405 53.7091 60.9405 53.8884C60.8612 54.0535 60.8355 54.2715 60.7939 54.4741C59.4363 55.346 56.8857 55.0251 55.7651 56.1344C53.7996 55.0756 51.9729 56.7433 49.9069 56.9158C49.5656 56.9439 49.186 56.8871 48.8322 56.9158C47.6115 57.0143 46.4193 57.2998 45.1709 57.4038C43.8907 57.5104 42.6079 57.5886 41.2653 57.648C40.7767 57.648 40.2888 57.648 39.8007 57.648C33.7454 57.3301 27.7583 56.5155 23.2988 54.5232C21.0755 53.5298 19.029 52.3111 17.1473 50.8614C15.3161 49.4514 13.4364 47.8838 12.1184 46.126C10.7151 44.2541 9.31119 42.4339 8.06618 40.3653C6.86512 38.3686 5.74246 36.2654 4.74644 33.9205C3.76389 31.6082 3.06382 29.3201 2.40271 26.4996C1.97058 24.6548 1.51451 22.5661 0.742839 20.8363C0.442366 20.1627 0.0925693 19.6113 0.0594482 18.9808C0.0594482 18.8347 0.0594482 18.6878 0.0594482 18.5416C0.300231 16.4909 1.89505 15.3006 3.76984 14.7332C4.23926 14.5913 4.69569 14.4558 5.13686 14.1962C5.16558 14.1796 5.44687 14.1509 5.33237 14.001C4.49708 13.8 3.80988 15.0298 2.8913 14.6845C2.07578 14.3778 2.54532 13.1152 3.42839 12.7317C3.84061 12.5526 4.65911 12.506 5.03929 12.2923C5.6948 11.9239 5.99229 11.1456 5.86946 10.437C5.79666 10.0184 5.36216 9.79796 5.38122 9.46055C5.40791 8.99007 6.24916 8.58094 6.65043 8.2888C7.14141 7.9315 7.72257 7.4852 7.67575 6.92178C7.62643 6.33323 6.93422 6.1457 6.60158 5.70131C6.07939 5.00386 5.99658 3.96138 6.84558 3.55285C7.73568 3.12453 9.394 3.35793 9.57974 4.48059C9.74344 5.47006 9.04098 5.84702 9.33538 6.57985C9.8839 7.94353 14.1497 5.78495 13.095 8.6305C14.0331 10.1011 17.6992 8.84305 17.7819 11.1693C19.3109 11.2 20.0136 12.3603 21.2481 12.8293C21.579 12.9548 21.973 12.9548 22.3223 13.0733C24.4044 13.7809 26.9845 14.5401 27.8391 16.5396C27.0668 17.0599 26.0129 16.7116 25.1053 16.3932C24.3158 16.116 23.1649 15.567 22.3712 15.9049C21.5842 16.24 21.6263 17.5845 21.7365 18.9316C22.0296 22.518 22.2015 26.2172 22.7127 29.4284C23.4267 33.9108 24.9529 37.5009 27.107 40.3159C29.1908 43.0394 31.6387 45.8913 34.8205 47.8835C37.5053 49.564 40.5218 50.8899 44.341 51.7401C44.9074 51.8665 45.5921 52.1424 45.9032 52.0819C46.3644 51.9933 47.3568 50.6521 47.7101 50.3246C48.5499 49.5437 49.68 48.4512 50.8829 49.3966C50.7195 50.6982 49.5532 50.997 49.2718 52.18C49.9951 52.6402 50.7621 52.2236 51.6644 52.2771C52.7142 52.3395 53.5193 52.9415 54.3988 52.8142C54.96 52.7329 55.241 52.3148 55.668 52.0333C56.638 53.4514 60.3781 51.6054 60.9405 53.3514ZM50.3457 49.7385C50.325 49.581 50.4102 49.3164 50.2483 49.2996C50.1074 49.371 49.9683 49.8198 50.3457 49.7385ZM25.7888 15.3679C26.267 15.6543 26.6881 15.9984 27.1069 16.3447C27.359 15.6024 26.6354 15.1275 25.7888 15.1727C25.7888 15.2376 25.7888 15.3027 25.7888 15.3679ZM38.9218 51.3497C39.108 51.3889 39.2428 51.426 39.2636 51.2035C39.0897 51.1922 38.9714 51.2358 38.9218 51.3497ZM32.1842 47.0531C32.1677 47.2831 32.6315 47.2875 32.7217 47.2484C32.6454 47.0958 32.414 46.8976 32.1842 47.0531ZM31.0124 46.1257C31.0937 46.2079 31.2992 46.1643 31.4518 46.1747C31.4681 45.9959 31.3972 45.9033 31.3542 45.7838C31.0976 45.7557 31.0267 45.9121 31.0124 46.1257ZM21.6387 26.1573C21.5062 26.045 21.41 26.2507 21.3457 26.1573C21.5048 24.9461 21.7603 23.0813 21.2481 22.0567C21.1215 21.9461 20.9211 22.0955 20.8577 22.0076C21.1986 21.1939 21.4288 19.4967 21.297 18.4925C21.2506 18.1385 21.0668 17.509 20.8577 17.3696C20.3323 17.0198 19.8542 17.5573 19.4904 17.6625C19.2616 17.7293 19.0071 17.6816 18.7582 17.7112C17.7738 17.8298 16.7291 18.1234 16.0731 18.4434C16.4151 18.6713 16.8997 18.756 17.0494 19.1756C16.1987 19.1155 15.5351 18.8679 14.8035 18.6876C14.8815 19.7891 13.5307 19.4439 12.7043 19.5178C12.9898 19.524 13.0355 19.662 13.0461 19.8594C13.0801 20.5074 10.9477 21.2754 10.2144 20.7874C9.16846 21.6306 10.6746 22.492 10.6049 23.5703C10.3993 23.7226 10.3044 23.9855 10.1167 24.1556C9.0772 24.1809 7.98385 24.3899 8.16351 25.474C8.02305 25.392 7.80144 25.3374 7.62643 25.4249C7.36074 26.1094 7.80681 26.8523 8.40787 26.9876C8.5593 26.9435 8.59456 26.7837 8.79841 26.7923C10.1561 27.0519 10.6341 27.9524 10.5561 29.6724C10.5425 29.9686 10.5719 30.3551 10.3608 30.5515C9.59034 30.4988 8.87597 28.597 10.1166 28.55C9.81909 28.1123 9.5938 27.4592 9.04241 27.4756C8.41037 27.4944 8.1267 28.4933 7.67539 28.8427C8.3259 29.2022 9.85364 30.1941 8.6029 30.8444C9.22208 30.9372 9.56758 31.1827 9.82338 31.5275C10.2497 32.1032 10.2361 32.9658 10.5559 33.432C11.2029 34.3758 11.5445 32.5854 12.3132 33.3339C12.4948 33.3964 12.2332 33.1576 12.2156 33.1392C11.5562 32.4272 10.5504 31.8436 10.1652 30.9909C10.4613 30.8552 10.8581 31.0033 11.1414 31.0395C11.2534 30.466 10.8549 29.8169 10.995 29.3792C11.0959 29.0654 11.2821 29.2036 11.4834 29.0866C11.6017 29.0177 11.5091 28.7613 11.7276 28.8426C11.7263 29.5129 11.3224 30.6409 11.7761 31.1371C12.4386 31.256 12.63 30.1167 13.1922 30.1119C13.5063 30.1092 13.803 30.662 14.022 30.9418C14.2851 31.2777 14.6426 31.6904 14.5591 32.0645C14.3832 32.8532 13.0586 32.2528 12.6063 31.918C12.882 33.0124 14.5784 33.1823 14.6567 34.6038C14.6656 34.7623 14.5855 34.9649 14.6079 35.1404C14.7039 35.8905 15.4033 36.4479 16.1213 35.9708C16.2268 36.2398 16.2407 36.6004 16.5122 36.703C16.75 36.5019 16.6655 35.9776 16.8049 35.6774C17.6568 35.8558 18.1015 36.266 18.3671 36.9468C18.4986 37.2836 18.4647 37.9079 19.0017 37.9232C19.0839 37.0909 18.4318 36.5752 18.3185 35.775C18.7561 36.481 20.3346 37.245 20.2714 38.3628C20.2295 39.1 19.3533 39.1802 18.5137 39.2903C19.3139 39.5652 19.649 40.4614 20.5154 40.7547C20.7482 40.8341 21.0473 40.7662 21.2965 40.8528C21.9305 41.0733 22.9441 42.3729 22.6638 43.1963C21.3129 43.8771 20.259 42.0371 18.7579 42.0736C19.3908 42.8807 20.4263 43.1492 21.2966 43.5382C22.2333 43.9564 23.1712 44.3848 24.0795 44.8074C26.2207 45.8033 27.707 47.1064 29.1083 48.7621C28.136 49.2922 25.1889 48.4104 26.9601 47.7851C26.344 47.7643 25.692 47.3779 25.1534 47.5904C25.4389 49.4533 27.8899 49.1506 29.743 49.4453C29.5743 49.7649 29.3365 50.0155 29.1569 50.3242C29.2998 50.4085 29.4972 50.4392 29.743 50.4218C29.6243 50.6121 29.3154 50.6126 29.3033 50.9098C29.5407 51.2259 30.0104 51.3096 30.3287 51.5445C31.5833 50.6447 31.7241 52.686 32.5256 52.7162C33.2831 52.7445 33.4284 51.656 34.186 51.5445C33.9956 51.9404 33.623 52.1534 33.4537 52.57C34.1955 52.3907 34.407 51.9914 35.0153 51.8373C37.1953 51.2858 38.9825 53.1016 40.7764 53.3024C41.4214 53.3742 42.0626 53.7364 42.6317 53.8395C43.3675 53.9722 43.8199 53.73 44.3892 53.4491C43.5222 52.6395 41.5315 52.9547 40.8254 51.984C40.8527 51.8161 40.9676 51.7358 41.0697 51.6426C38.7846 52.1446 37.3458 50.7752 36.3827 49.4944C33.5636 48.7662 31.0903 47.6915 29.889 45.3446C29.8314 45.1236 30.1055 45.2356 30.0359 45.0027C29.0448 43.8998 28.0542 42.7801 27.2531 41.4875C26.9762 41.0412 26.7866 40.4802 26.4717 40.1206C26.2723 39.8926 25.9376 39.7672 25.7395 39.5344C25.5225 39.2792 25.493 38.9597 25.1533 38.8512C25.0227 39.0459 25.1103 39.4586 25.0071 39.681C24.7723 38.7383 24.2492 37.8429 23.2496 37.8257C23.231 37.14 23.7849 37.0271 24.0794 36.6539C23.6917 36.1877 23.5983 35.6006 23.396 34.8966C22.9042 33.1859 22.4978 31.3987 22.0776 29.8188C21.5207 30.0267 21.3731 30.644 21.1014 31.1371C21.1282 30.4318 21.1612 29.7322 21.5409 29.3792C21.7144 29.401 21.7335 29.5774 21.8336 29.6723C21.9253 29.3396 22.2401 29.0294 22.0776 28.5983C21.9515 28.4037 21.583 28.4945 21.492 28.5008C21.7329 27.9111 21.9352 26.841 21.6387 26.1573ZM41.2652 55.1093C41.6873 54.9289 42.0672 54.7069 42.2412 54.2789C41.7824 54.3938 41.1354 54.5672 41.2652 55.1093ZM41.3138 54.1327C41.0314 54.2891 40.7138 54.4116 40.5329 54.6698C40.9377 54.694 41.4118 54.2877 41.3138 54.1327ZM39.8006 54.8649C40.077 54.7912 40.3728 54.5057 40.3377 54.2789C40.0167 54.311 39.5203 54.5399 39.8006 54.8649ZM39.9959 53.7418C39.5565 53.603 39.1977 53.9469 39.1655 54.3769C39.5569 54.2798 39.8219 54.0564 39.9959 53.7418ZM38.6285 53.8398C38.1993 53.9147 37.8784 54.0974 37.7496 54.474C38.2742 54.6822 38.5427 54.2313 38.6285 53.8398ZM37.9452 55.1093C38.0661 55.1162 38.1819 55.1181 38.1895 55.0112C38.1162 54.9338 37.911 54.9397 37.9452 55.1093ZM38.7265 53.0095C38.0434 52.9571 37.2263 53.4004 37.6524 53.986C38.1072 53.7572 38.568 53.5347 38.7265 53.0095ZM35.3575 53.9375C35.7841 53.9975 35.8956 53.5095 36.1879 53.5951C36.3574 53.7021 36.2544 54.0822 36.5292 54.0837C37.1678 53.9539 37.3978 53.0825 37.0173 52.4726C36.1567 52.624 35.3693 53.0977 35.3575 53.9375ZM35.5526 52.6681C35.2935 52.7994 35.0176 52.9134 34.8695 53.1561C35.1889 53.1423 35.6646 52.79 35.5526 52.6681ZM34.1862 52.9123C34.2135 53.0422 33.9851 53.1606 34.1366 53.2537C34.1773 53.1923 34.434 52.9509 34.1862 52.9123ZM33.3073 54.0836C33.2919 54.1501 33.2375 54.1768 33.2588 54.2789C33.3233 54.2789 33.3887 54.2789 33.4541 54.2789C33.4673 54.151 33.4356 54.0692 33.3073 54.0836ZM32.5751 53.8398C32.3283 53.8537 32.235 54.0207 32.2331 54.2789C32.4457 54.2317 32.6394 54.1649 32.5751 53.8398ZM27.6435 51.3497C27.3427 51.3365 27.2509 51.3829 27.595 51.4479C27.9227 51.5083 28.5009 51.5399 28.718 51.4479C28.4603 51.4449 27.7944 51.3567 27.6435 51.3497ZM29.1086 50.5688C28.8531 50.3746 28.3396 50.5153 28.0833 50.6174C28.2312 51.0237 28.9572 50.8433 29.1086 50.5688ZM27.5465 54.2303C28.7641 54.8684 30.4407 55.565 32.1842 55.353C30.9172 54.7327 29.0331 54.4681 27.5465 54.2303ZM25.7399 53.6932C25.8565 53.8533 26.1319 53.8543 26.3254 53.9375C26.6858 53.5892 25.8937 53.3929 25.7399 53.6932ZM21.1504 49.7385C20.8209 49.7673 20.4623 49.7663 20.3694 50.0319C20.6833 50.1483 21.1376 50.0759 21.1504 49.7385ZM20.2227 51.0079C20.3374 51.1119 20.5484 51.2358 20.6134 51.0079C20.5628 50.9563 20.2649 50.9073 20.2227 51.0079ZM20.8086 46.858C20.8529 46.6539 20.4642 46.5767 20.4182 46.7605C20.5252 46.8158 20.6179 46.8862 20.8086 46.858ZM21.4435 48.5177C21.4411 48.4507 21.4665 48.4107 21.4923 48.3715C21.3468 48.2213 21.0526 48.1946 20.8086 48.2739C20.8477 48.5088 21.2387 48.6068 21.4435 48.5177ZM21.4924 51.643C21.5548 51.7095 21.7228 51.7095 21.7852 51.643C21.8082 51.4894 21.7242 51.4433 21.6388 51.3983C21.5949 51.485 21.5208 51.5409 21.4924 51.643ZM23.0059 46.0281C22.8469 45.5684 22.3283 45.6897 21.9805 45.54C21.4216 45.2992 20.9444 44.7245 20.2228 44.7102C20.1904 44.7102 20.1576 44.7102 20.1255 44.7102C20.7531 45.4498 21.5838 46.2446 23.0059 46.0281ZM20.4669 44.2222C20.0112 43.9126 19.512 43.6465 18.8558 43.5386C19.0644 44.0622 19.8765 44.2426 20.4669 44.2222ZM21.9804 46.5161C22.3227 46.8739 22.7523 47.1444 23.4939 47.1018C23.2088 46.7193 22.5276 46.474 21.9804 46.5161ZM23.8356 48.7135C23.333 48.3651 22.5424 47.7999 21.8828 47.932C22.2643 48.4295 23.0312 48.8021 23.8356 48.7135ZM21.9804 50.5688C21.9686 50.6383 21.9001 50.6507 21.8828 50.7145C22.0031 50.8716 22.1842 50.6016 21.9804 50.5688ZM23.1033 52.0334C23.1447 52.2196 23.324 52.2683 23.4939 52.3263C23.5601 52.2133 23.69 52.1642 23.6404 51.9359C23.5217 51.8645 23.0949 51.8234 23.1033 52.0334ZM24.031 49.8852C23.8798 49.7926 23.3284 49.6891 23.2008 49.8852C23.4377 49.9814 23.9029 50.2301 24.031 49.8852ZM24.1774 48.2249C24.2263 47.8617 23.8155 47.8602 23.6404 47.9806C23.6568 48.2249 23.9799 48.1626 24.1774 48.2249ZM24.7144 45.5886C24.4939 45.2556 23.8814 45.3151 23.4451 45.1982C23.1256 44.7969 22.3615 44.6512 21.6875 44.7588C22.4594 45.273 23.3374 45.6803 24.7144 45.5886ZM24.6168 50.2755C24.8265 50.4565 25.1552 50.5183 25.4468 50.6174C25.4624 50.5025 25.5237 50.4341 25.4955 50.2755C25.3534 50.1116 24.7366 50.0269 24.6168 50.2755ZM20.4669 42.3662C20.5158 42.1384 20.3817 42.0938 20.174 42.1225C20.1003 42.3752 20.3439 42.3102 20.4669 42.3662ZM21.6387 42.9524C21.4961 42.9162 21.5441 42.6893 21.3457 42.7082C21.1658 42.8732 21.4899 43.1243 21.6387 42.9524ZM18.27 43.2942C18.1079 42.936 17.7428 42.78 17.4889 42.5129C17.965 41.8232 16.9027 41.5408 16.7077 41.0483C16.7054 40.8997 16.8107 40.8585 16.8541 40.755C16.4439 40.5147 15.9702 40.3374 15.7311 39.9256C15.9199 39.789 16.4233 39.9663 16.6097 39.8276C16.314 39.7002 15.9947 39.5967 15.8775 39.2905C16.0487 38.8921 16.7447 39.019 16.9027 38.6072C16.0617 38.4215 15.2262 37.9746 14.315 38.0212C14.3253 38.3689 14.6349 38.4174 14.7544 38.6558C14.4843 38.5359 14.2658 38.363 13.8757 38.363C13.8465 38.6038 14.0025 38.6593 13.9735 38.9001C13.7072 38.9219 13.5723 38.813 13.2898 38.8516C13.4911 39.3009 14.0075 39.4356 14.1688 39.9258C13.9691 39.9763 13.6981 39.8464 13.6317 39.9258C14.1471 40.3538 14.8998 40.8051 15.1938 41.2922C14.7142 41.2031 14.4397 40.9077 13.9735 40.8042C14.3638 41.5771 15.3142 41.7381 16.0239 42.1225C16.7505 42.5158 17.4014 43.1501 18.27 43.2942ZM17.1958 43.8799C17.3999 43.9914 17.8062 44.3455 18.0747 44.0757C17.8483 43.9753 17.4922 43.7476 17.1958 43.8799ZM16.8054 43.6356C16.668 43.4131 15.9671 43.2947 15.7803 43.4403C16.0989 43.532 16.3991 43.7792 16.8054 43.6356ZM15.9265 43.7822C15.9111 43.8486 15.8571 43.8753 15.8777 43.978C15.9636 43.9497 16.1645 44.0364 16.1707 43.9289C16.0949 43.8744 16.0689 43.7703 15.9265 43.7822ZM15.2918 37.2888C15.1586 36.83 14.9807 36.3272 14.6084 35.9709C14.4079 35.7787 14.2137 35.7826 14.0713 35.5309C13.694 34.8671 13.8749 33.9298 13.3878 33.237C13.2726 33.1994 13.0504 33.1403 12.9484 33.237C12.9576 33.5571 13.7006 34.3161 13.1928 34.7016C12.07 34.7461 11.6378 33.8523 10.5565 34.0178C10.3129 34.6485 11.1738 34.9726 10.9468 35.4339C12.4999 35.9324 13.7333 37.0124 15.2918 37.2888ZM11.7766 38.7534C12.0635 38.9719 12.4782 39.3212 12.8507 39.2905C12.5556 39.0814 12.2841 38.589 11.7766 38.7534ZM11.2395 38.3145C11.1128 37.9205 10.8933 37.6193 10.4096 37.5823C10.508 38.0043 10.9665 38.0668 11.2395 38.3145ZM10.4096 39.5838C10.6709 39.7627 10.9306 40.2011 11.1908 40.2185C11.0005 39.9692 10.7686 39.5021 10.4096 39.5838ZM10.7515 36.2148C10.7767 36.1425 10.8234 36.0919 10.8491 36.0195C10.7238 35.8471 10.4152 35.9412 10.3609 36.1175C10.457 36.184 10.6397 36.1643 10.7515 36.2148ZM18.3189 38.1677C18.312 37.7476 17.8454 37.5039 17.4889 37.7287C17.6018 38.0389 17.9422 38.1213 18.3189 38.1677ZM13.7293 31.7726C13.7375 31.6918 13.4287 31.6918 13.4366 31.7726C13.5035 31.7874 13.7311 31.993 13.7293 31.7726ZM11.8257 31.5769C11.7605 31.5769 11.6953 31.5769 11.6301 31.5769C11.5631 31.6397 11.5819 31.7894 11.5813 31.9182C11.6705 31.9315 11.8551 32.0945 11.9232 31.9676C11.8024 31.9251 11.9373 31.6279 11.8257 31.5769ZM8.16363 31.5278C8.32543 31.8959 8.98034 31.8686 9.09138 31.4793C8.81354 31.3717 8.4043 31.4465 8.16363 31.5278ZM8.31041 30.1608C8.12158 30.1513 7.95049 30.1592 7.82182 30.2098C7.85982 30.4229 8.3091 30.385 8.31041 30.1608ZM8.74957 22.3007C8.49866 22.4166 7.97539 22.1845 7.72448 22.3007C7.94668 23.1803 9.59356 22.7067 9.48216 22.0076C9.38756 21.4145 7.82146 21.5614 7.28509 21.6172C7.70077 21.9174 8.36152 21.9727 8.74957 22.3007ZM6.79685 23.2282C6.88871 23.3643 7.14117 23.3395 7.28509 23.4235C7.31332 23.3217 7.40625 23.2843 7.38267 23.1306C7.25459 23.063 6.79375 23.0097 6.79685 23.2282ZM9.28689 23.0331C9.26056 23.1396 9.16846 23.3489 9.33538 23.3749C9.45166 23.2929 9.42736 23.1038 9.28689 23.0331ZM10.6539 20.1036C10.641 19.9609 10.7641 19.954 10.7515 19.8108C10.553 19.7914 10.4111 19.8285 10.4096 20.0059C10.5025 20.0271 10.5321 20.1111 10.6539 20.1036ZM10.6051 9.26516C10.4106 10.4566 11.4841 11.8978 12.753 11.462C12.8123 11.0124 12.6071 10.8271 12.6066 10.4369C12.9304 10.3584 13.1211 10.6694 13.29 10.5833C12.8151 9.72397 11.5519 9.65284 10.6051 9.26516ZM10.0677 8.14226C10.4969 8.22721 11.1704 8.1842 11.3373 7.84929C11.0131 7.6327 10.0405 7.57468 10.0677 8.14226ZM8.89599 4.72459C8.98987 3.77635 7.83111 3.25237 7.13866 3.89478C6.70583 4.29604 6.51782 5.26513 7.18739 5.60361C7.11138 5.35389 6.88942 5.2506 6.94339 4.87137C7.45224 4.58043 8.38523 5.01327 8.89599 4.72459ZM8.55465 7.84918C8.6788 7.77829 8.86525 7.76983 8.8475 7.55633C8.69738 7.57146 8.44159 7.73325 8.55465 7.84918ZM7.52909 11.462C8.1379 11.4764 8.59695 11.133 9.18907 11.1204C9.70162 11.1096 10.1901 11.2621 10.8002 11.218C10.3645 9.93926 8.24751 11.056 7.52909 11.462ZM6.60158 13.7079C7.75355 13.5615 9.35849 12.8035 10.8979 12.9757C11.4786 13.0405 11.9872 13.3673 12.3137 13.6103C12.1472 13.4327 11.95 12.7037 12.3137 12.5853C13.1149 12.7379 13.1416 14.2517 14.1201 14.0498C14.6186 13.947 14.7703 12.9801 14.5107 12.3899C14.8833 12.652 15.0752 13.0947 15.5849 13.2199C15.4686 12.7503 15.1306 12.5023 14.9015 12.1457C15.0454 11.9644 15.2339 11.8272 15.1942 11.462C13.7971 11.3277 12.5569 12.0819 11.2396 12.3409C10.2173 12.5422 9.45643 12.7417 8.55477 12.9756C7.87686 13.1513 7.12258 13.2746 6.60158 13.7079ZM2.50052 23.8143C2.43344 23.8764 2.41545 24.1059 2.54925 24.1071C2.5894 24.0717 2.6803 23.7692 2.50052 23.8143ZM4.209 18.0045C2.06816 18.3442 4.35006 20.6209 5.6251 20.0551C5.78654 19.8072 5.73638 19.58 5.72268 19.2247C6.46552 19.2975 7.02441 18.9357 7.67575 19.0785C7.78083 19.3055 7.58211 19.4977 7.52921 19.713C9.74439 19.5725 10.8412 17.832 13.2412 17.565C13.5394 17.5317 13.8793 17.5845 14.2179 17.565C15.2286 17.506 16.3481 17.3187 17.3913 17.1255C18.4149 16.9363 19.3507 16.5599 20.2228 16.3446C21.3174 16.074 22.9825 15.3592 22.7618 13.9033C22.7366 13.7376 22.6216 13.5887 22.5176 13.4151C16.6995 12.8525 12.3494 15.1333 7.77345 16.0515C7.22373 16.1617 6.55535 16.0885 6.11334 16.5395C6.27323 16.9329 6.83509 16.9245 7.08958 17.223C6.96234 17.3722 6.64769 17.3341 6.60158 17.565C6.70928 17.9779 7.32143 17.8859 7.38267 18.3463C6.41083 19.0314 4.37305 18.1576 4.8439 16.7839C3.37549 17.1057 1.23751 17.4255 1.2312 19.0785C1.22822 19.8071 1.66249 20.4809 2.15859 20.8849C1.82249 19.3468 2.39377 17.0724 4.209 18.0045ZM6.01565 27.1341C6.06008 26.8035 5.51668 26.572 5.33225 26.7925C5.51216 26.9542 5.79381 27.0139 6.01565 27.1341ZM4.30681 27.7688C4.65208 28.9692 4.76443 30.4033 5.67383 31.0399C5.53694 29.6307 5.0369 28.5848 4.30681 27.7688ZM6.35734 26.4994C6.50936 25.8102 5.49822 25.5402 5.42983 26.0111C5.37014 26.4212 6.01672 26.3735 6.35734 26.4994ZM6.55273 25.181C6.33232 24.94 5.77915 24.7906 5.3811 24.8882C5.52157 25.2338 6.38582 25.7453 6.55273 25.181ZM5.96692 23.0331C6.18745 22.8956 6.42144 22.7712 6.45492 22.4469C6.1716 22.2348 5.49333 22.2049 5.42983 22.5451C5.38182 22.8022 5.72637 22.9064 5.96692 23.0331ZM6.60158 23.8629C6.62291 23.6951 6.58228 23.5894 6.55273 23.4722C6.3023 23.466 6.18542 23.5931 6.16219 23.8143C6.28371 23.8552 6.4237 23.878 6.60158 23.8629ZM3.18403 23.6189C3.14638 23.4938 3.13518 23.3421 3.03761 23.2772C2.9162 23.4086 2.91156 23.6446 3.18403 23.6189ZM3.67227 20.2991C3.45317 20.2137 3.12887 20.3049 3.03761 20.4943C3.14007 20.5867 3.28756 20.635 3.42815 20.6893C3.47747 20.5278 3.69824 20.5367 3.67227 20.2991ZM4.209 26.597C4.08271 26.3166 4.06686 25.9257 3.81869 25.7672C3.15019 25.8623 3.8125 26.8227 4.209 26.597ZM5.13675 31.8696C5.61343 33.022 6.11656 34.2677 7.13866 34.7988C6.37438 33.9485 6.194 32.5415 5.67383 31.5278C5.49393 31.178 5.20692 30.906 5.03917 30.5517C4.64446 29.7173 4.46253 28.7438 3.67227 28.3546C3.9837 29.5823 4.65077 30.6934 5.13675 31.8696ZM18.5631 50.1781C18.2676 49.1718 17.4745 48.6623 16.366 48.4692C16.092 47.8157 15.3011 47.6794 15.1455 46.907C15.1203 46.7485 15.4479 46.6925 15.341 46.6142C13.8551 46.8956 13.8027 45.3207 13.0951 44.6611C11.3095 44.6934 11.6417 42.4842 10.654 41.3416C10.3719 41.0147 10.0922 40.9393 9.77513 40.6094C9.28725 39.0974 8.01399 38.3303 7.28521 36.9967C6.63792 35.8116 6.50174 34.4748 5.43007 33.6276C6.27799 36.4983 8.09453 38.925 9.7264 41.3417C11.0327 43.2754 11.921 45.1171 13.3879 46.6629C13.8864 47.1875 14.4493 47.5388 15.0481 48.0298C16.0666 48.865 16.768 50.4143 18.5631 50.1781ZM18.3676 46.858C18.315 46.6489 17.9384 46.5078 17.7329 46.6142C17.9222 46.7183 18.1302 46.8026 18.3676 46.858ZM20.174 45.5886C19.8432 45.2032 19.1508 45.0564 18.5141 44.8077C17.7243 44.4985 16.5975 44.2058 16.0243 44.5634C16.082 45.0425 16.4636 45.1981 16.7077 45.4909C17.386 45.5954 17.7741 45.9264 18.4163 45.9789C19.1732 46.0415 19.88 46.0078 20.174 45.5886ZM43.462 56.7204C41.9847 56.0467 39.818 56.8047 38.2379 56.4271C37.9397 56.3557 37.6761 56.1507 37.4081 56.1343C37.1416 56.1179 36.8314 56.2586 36.5782 56.2809C35.2251 56.4012 33.9899 56.2676 32.7216 56.0852C31.8318 55.9573 30.884 55.9073 30.0848 55.6947C29.3193 55.4916 28.5276 55.0229 27.7413 54.7183C26.9434 54.4096 26.1128 54.1019 25.3491 53.7908C23.8424 53.1769 22.2412 52.1147 20.6621 51.6916C21.7273 52.8232 23.5612 53.1868 24.8122 54.1327C23.0444 53.6383 21.7105 52.7103 20.1252 52.0334C21.3604 53.1393 23.0839 53.8091 24.8122 54.523C26.5334 55.2345 28.4038 55.8364 30.4264 56.1341C34.4439 56.7259 39.156 57.6048 43.462 56.7204ZM44.7313 56.5738C44.4807 56.5838 44.1684 56.5316 44.1458 56.769C44.3582 56.9513 44.7155 56.9324 44.7313 56.5738ZM47.3677 50.8126C47.437 51.1734 47.9608 51.0658 47.9053 50.666C47.6391 50.6283 47.5238 50.7413 47.3677 50.8126ZM51.4199 53.3514C50.1074 53.3197 48.4884 52.8663 47.1233 52.9123C46.5996 52.9297 45.963 53.0551 45.8054 53.595C46.2082 53.7585 46.6397 53.6604 47.1233 53.6446C48.7068 53.5911 50.6417 54.3026 51.4199 53.3514ZM52.7383 53.2537C52.5099 53.2532 52.4426 53.4143 52.3965 53.595C52.4593 53.6623 52.6084 53.6441 52.7383 53.6446C52.7151 53.4286 52.8053 53.4014 52.7383 53.2537ZM55.6189 53.0586C55.3806 53.0224 55.2919 53.3187 55.3747 53.4494C55.5282 53.4726 55.5654 53.3796 55.6679 53.3514C55.7031 53.2022 55.5836 53.2077 55.6189 53.0586ZM59.6707 53.3514C58.6713 53.2449 57.5041 53.3107 56.5954 53.4494C57.1304 53.9533 59.0523 53.6317 59.6707 53.3514ZM12.7043 23.6674C13.1859 23.9349 13.6303 24.4987 14.2667 24.4487C14.0948 24.2139 13.851 24.0506 13.6806 23.8143C13.8619 23.8 14.0159 23.7591 14.0712 23.6189C13.4774 23.2034 12.7159 22.696 12.4114 22.1538C12.6123 22.5433 12.92 23.1637 12.7043 23.6674ZM18.9536 24.0584C18.8491 23.9514 18.8962 23.6923 18.7581 23.619C18.727 23.8314 18.8645 24.1284 18.9536 24.0584ZM14.4619 28.3061C14.5367 29.1099 15.0504 29.4744 15.0965 30.3077C14.5259 29.6579 14.2073 28.7556 13.8272 27.915C13.7899 28.9318 14.0973 29.5618 14.3643 30.2589C14.5698 30.7946 14.7625 31.4233 15.2918 31.577C15.539 31.5309 15.5252 31.2236 15.7804 31.1861C16.0518 31.2252 16.1931 31.6512 16.366 31.6259C16.2356 31.4794 16.195 31.2435 16.1707 30.9913C16.2179 30.8104 16.4764 30.8412 16.5611 30.698C16.0702 29.6921 15.3664 28.8983 14.4619 28.3061Z" fill="black"/>
</svg>
