<svg width="48" height="48" viewBox="0 0 48 48" fill="none" xmlns="http://www.w3.org/2000/svg">
<g clip-path="url(#clip0_45_264)">
<path d="M23.9995 19.3266C21.4233 19.3266 19.3256 21.4233 19.3256 23.9995C19.3256 26.5767 21.4233 28.6744 23.9995 28.6744C26.5767 28.6744 28.6734 26.5767 28.6734 23.9995C28.6734 21.4233 26.5767 19.3266 23.9995 19.3266ZM23.9995 19.3266C21.4233 19.3266 19.3256 21.4233 19.3256 23.9995C19.3256 26.5767 21.4233 28.6744 23.9995 28.6744C26.5767 28.6744 28.6734 26.5767 28.6734 23.9995C28.6734 21.4233 26.5767 19.3266 23.9995 19.3266ZM31.7859 11.7062H16.2141C13.7286 11.7062 11.7062 13.7286 11.7062 16.2141V31.7859C11.7062 34.2714 13.7286 36.2938 16.2141 36.2938H31.7859C34.2714 36.2938 36.2938 34.2714 36.2938 31.7859V16.2141C36.2938 13.7286 34.2714 11.7062 31.7859 11.7062ZM23.9995 32.0943C19.537 32.0943 15.9057 28.463 15.9057 23.9995C15.9057 19.537 19.537 15.9057 23.9995 15.9057C28.463 15.9057 32.0943 19.537 32.0943 23.9995C32.0943 28.463 28.463 32.0943 23.9995 32.0943ZM32.3541 17.5796C31.2981 17.5796 30.439 16.7205 30.439 15.6644C30.439 14.6084 31.2981 13.7493 32.3541 13.7493C33.4102 13.7493 34.2693 14.6084 34.2693 15.6644C34.2693 16.7205 33.4102 17.5796 32.3541 17.5796ZM23.9995 19.3266C21.4233 19.3266 19.3256 21.4233 19.3256 23.9995C19.3256 26.5767 21.4233 28.6744 23.9995 28.6744C26.5767 28.6744 28.6734 26.5767 28.6734 23.9995C28.6734 21.4233 26.5767 19.3266 23.9995 19.3266ZM31.7859 11.7062H16.2141C13.7286 11.7062 11.7062 13.7286 11.7062 16.2141V31.7859C11.7062 34.2714 13.7286 36.2938 16.2141 36.2938H31.7859C34.2714 36.2938 36.2938 34.2714 36.2938 31.7859V16.2141C36.2938 13.7286 34.2714 11.7062 31.7859 11.7062ZM23.9995 32.0943C19.537 32.0943 15.9057 28.463 15.9057 23.9995C15.9057 19.537 19.537 15.9057 23.9995 15.9057C28.463 15.9057 32.0943 19.537 32.0943 23.9995C32.0943 28.463 28.463 32.0943 23.9995 32.0943ZM32.3541 17.5796C31.2981 17.5796 30.439 16.7205 30.439 15.6644C30.439 14.6084 31.2981 13.7493 32.3541 13.7493C33.4102 13.7493 34.2693 14.6084 34.2693 15.6644C34.2693 16.7205 33.4102 17.5796 32.3541 17.5796ZM23.9995 19.3266C21.4233 19.3266 19.3256 21.4233 19.3256 23.9995C19.3256 26.5767 21.4233 28.6744 23.9995 28.6744C26.5767 28.6744 28.6734 26.5767 28.6734 23.9995C28.6734 21.4233 26.5767 19.3266 23.9995 19.3266ZM0.5 0.5V47.5H47.5V0.5H0.5ZM39.7136 31.7859C39.7136 36.1576 36.1576 39.7136 31.7859 39.7136H16.2141C11.8424 39.7136 8.28641 36.1576 8.28641 31.7859V16.2141C8.28641 11.8424 11.8424 8.28641 16.2141 8.28641H31.7859C36.1576 8.28641 39.7136 11.8424 39.7136 16.2141V31.7859ZM31.7859 11.7062H16.2141C13.7286 11.7062 11.7062 13.7286 11.7062 16.2141V31.7859C11.7062 34.2714 13.7286 36.2938 16.2141 36.2938H31.7859C34.2714 36.2938 36.2938 34.2714 36.2938 31.7859V16.2141C36.2938 13.7286 34.2714 11.7062 31.7859 11.7062ZM23.9995 32.0943C19.537 32.0943 15.9057 28.463 15.9057 23.9995C15.9057 19.537 19.537 15.9057 23.9995 15.9057C28.463 15.9057 32.0943 19.537 32.0943 23.9995C32.0943 28.463 28.463 32.0943 23.9995 32.0943ZM32.3541 17.5796C31.2981 17.5796 30.439 16.7205 30.439 15.6644C30.439 14.6084 31.2981 13.7493 32.3541 13.7493C33.4102 13.7493 34.2693 14.6084 34.2693 15.6644C34.2693 16.7205 33.4102 17.5796 32.3541 17.5796ZM23.9995 19.3266C21.4233 19.3266 19.3256 21.4233 19.3256 23.9995C19.3256 26.5767 21.4233 28.6744 23.9995 28.6744C26.5767 28.6744 28.6734 26.5767 28.6734 23.9995C28.6734 21.4233 26.5767 19.3266 23.9995 19.3266ZM23.9995 19.3266C21.4233 19.3266 19.3256 21.4233 19.3256 23.9995C19.3256 26.5767 21.4233 28.6744 23.9995 28.6744C26.5767 28.6744 28.6734 26.5767 28.6734 23.9995C28.6734 21.4233 26.5767 19.3266 23.9995 19.3266ZM23.9995 19.3266C21.4233 19.3266 19.3256 21.4233 19.3256 23.9995C19.3256 26.5767 21.4233 28.6744 23.9995 28.6744C26.5767 28.6744 28.6734 26.5767 28.6734 23.9995C28.6734 21.4233 26.5767 19.3266 23.9995 19.3266ZM31.7859 11.7062H16.2141C13.7286 11.7062 11.7062 13.7286 11.7062 16.2141V31.7859C11.7062 34.2714 13.7286 36.2938 16.2141 36.2938H31.7859C34.2714 36.2938 36.2938 34.2714 36.2938 31.7859V16.2141C36.2938 13.7286 34.2714 11.7062 31.7859 11.7062ZM23.9995 32.0943C19.537 32.0943 15.9057 28.463 15.9057 23.9995C15.9057 19.537 19.537 15.9057 23.9995 15.9057C28.463 15.9057 32.0943 19.537 32.0943 23.9995C32.0943 28.463 28.463 32.0943 23.9995 32.0943ZM32.3541 17.5796C31.2981 17.5796 30.439 16.7205 30.439 15.6644C30.439 14.6084 31.2981 13.7493 32.3541 13.7493C33.4102 13.7493 34.2693 14.6084 34.2693 15.6644C34.2693 16.7205 33.4102 17.5796 32.3541 17.5796ZM23.9995 19.3266C21.4233 19.3266 19.3256 21.4233 19.3256 23.9995C19.3256 26.5767 21.4233 28.6744 23.9995 28.6744C26.5767 28.6744 28.6734 26.5767 28.6734 23.9995C28.6734 21.4233 26.5767 19.3266 23.9995 19.3266ZM23.9995 19.3266C21.4233 19.3266 19.3256 21.4233 19.3256 23.9995C19.3256 26.5767 21.4233 28.6744 23.9995 28.6744C26.5767 28.6744 28.6734 26.5767 28.6734 23.9995C28.6734 21.4233 26.5767 19.3266 23.9995 19.3266ZM23.9995 19.3266C21.4233 19.3266 19.3256 21.4233 19.3256 23.9995C19.3256 26.5767 21.4233 28.6744 23.9995 28.6744C26.5767 28.6744 28.6734 26.5767 28.6734 23.9995C28.6734 21.4233 26.5767 19.3266 23.9995 19.3266ZM31.7859 11.7062H16.2141C13.7286 11.7062 11.7062 13.7286 11.7062 16.2141V31.7859C11.7062 34.2714 13.7286 36.2938 16.2141 36.2938H31.7859C34.2714 36.2938 36.2938 34.2714 36.2938 31.7859V16.2141C36.2938 13.7286 34.2714 11.7062 31.7859 11.7062ZM23.9995 32.0943C19.537 32.0943 15.9057 28.463 15.9057 23.9995C15.9057 19.537 19.537 15.9057 23.9995 15.9057C28.463 15.9057 32.0943 19.537 32.0943 23.9995C32.0943 28.463 28.463 32.0943 23.9995 32.0943ZM32.3541 17.5796C31.2981 17.5796 30.439 16.7205 30.439 15.6644C30.439 14.6084 31.2981 13.7493 32.3541 13.7493C33.4102 13.7493 34.2693 14.6084 34.2693 15.6644C34.2693 16.7205 33.4102 17.5796 32.3541 17.5796ZM23.9995 19.3266C21.4233 19.3266 19.3256 21.4233 19.3256 23.9995C19.3256 26.5767 21.4233 28.6744 23.9995 28.6744C26.5767 28.6744 28.6734 26.5767 28.6734 23.9995C28.6734 21.4233 26.5767 19.3266 23.9995 19.3266Z" fill="black"/>
</g>
<defs>
<clipPath id="clip0_45_264">
<rect width="47" height="47" fill="white" transform="translate(0.5 0.5)"/>
</clipPath>
</defs>
</svg>
