<svg width="61" height="62" viewBox="0 0 61 62" fill="none" xmlns="http://www.w3.org/2000/svg">
<path d="M47.58 10.6665H13.6488C13.2114 10.646 12.7743 10.712 12.3625 10.8606C11.9507 11.0093 11.5722 11.2377 11.2488 11.5328C10.9253 11.8279 10.6633 12.1839 10.4776 12.5804C10.2919 12.9769 10.1863 13.4062 10.1667 13.8436V47.8511C10.1923 48.7664 10.5674 49.6374 11.2149 50.2848C11.8625 50.9324 12.7334 51.3076 13.6488 51.3332H47.58C48.4699 51.2936 49.3089 50.9067 49.9171 50.2558C50.5253 49.6049 50.8542 48.7417 50.8334 47.8511V13.8436C50.8407 13.4178 50.7609 12.9951 50.599 12.6013C50.4371 12.2076 50.1964 11.851 49.8917 11.5535C49.5872 11.256 49.225 11.0239 48.8275 10.8714C48.43 10.7188 48.0055 10.6491 47.58 10.6665ZM22.875 44.5724H16.9529V26.4503H22.875V44.5724ZM20.0538 23.7052C19.6405 23.7196 19.2287 23.6484 18.8443 23.4961C18.4599 23.3437 18.1111 23.1135 17.82 22.82C17.5288 22.5264 17.3014 22.1757 17.1522 21.7901C17.003 21.4044 16.9352 20.9921 16.9529 20.579C16.9347 20.1614 17.0039 19.7446 17.1561 19.3554C17.3084 18.9661 17.5404 18.6129 17.8371 18.3186C18.1339 18.0242 18.4889 17.7951 18.8793 17.646C19.2698 17.4969 19.6872 17.4311 20.1046 17.4527C20.5179 17.4384 20.9296 17.5095 21.314 17.6619C21.6985 17.8142 22.0472 18.0444 22.3384 18.338C22.6296 18.6316 22.8569 18.9822 23.0061 19.3679C23.1554 19.7535 23.2232 20.1659 23.2054 20.579C23.2237 20.9966 23.1545 21.4134 23.0022 21.8026C22.85 22.1919 22.618 22.545 22.3213 22.8394C22.0245 23.1338 21.6695 23.3629 21.279 23.5119C20.8885 23.6611 20.4712 23.7269 20.0538 23.7052ZM44.0725 44.5724H38.125V34.6599C38.125 32.2961 37.2863 30.6695 35.1767 30.6695C34.5214 30.6751 33.8837 30.8832 33.3515 31.2655C32.819 31.6478 32.418 32.1853 32.2029 32.8045C32.0377 33.2686 31.9686 33.7614 31.9996 34.2532V44.5724H26.1538V26.4503H31.9996V28.992C32.5194 28.0371 33.2928 27.2446 34.2347 26.7017C35.1767 26.159 36.2503 25.8873 37.3371 25.9165C41.175 25.9165 44.0725 28.4582 44.0725 33.872V44.5724Z" fill="black"/>
</svg>
