<svg width="48" height="48" viewBox="0 0 48 48" fill="none" xmlns="http://www.w3.org/2000/svg">
<path d="M44.1429 16.2577V33.8457C44.1429 34.2318 44.0086 34.5575 43.7434 34.8126C43.4781 35.0711 43.1525 35.1987 42.7698 35.1987H28.423V23.5175L31.1088 25.5805C31.28 25.7231 31.4931 25.792 31.7449 25.792C31.9934 25.792 32.2099 25.7231 32.3979 25.5788L44.1429 16.2577ZM28.423 12.8653H42.7698C43.124 12.8653 43.4295 12.971 43.6813 13.1876C43.933 13.4024 44.074 13.6911 44.0975 14.0436L31.7281 23.9069L28.423 21.3068V12.8653ZM26.3567 5.30835V42.6918L3.85715 38.8042V9.30335L26.3567 5.30835ZM19.5602 24.0748C19.5266 22.173 19.0348 20.5968 18.0847 19.3513C17.1531 18.1091 15.9445 17.4528 14.5077 17.3974C13.1245 17.4528 11.9411 18.1075 10.9827 19.3513C10.0259 20.5968 9.5475 22.1746 9.52233 24.0748C9.5475 25.9497 10.0511 27.5108 11.0079 28.7597C11.9663 30.0018 13.1464 30.6615 14.5345 30.7337C15.9697 30.6749 17.1766 30.022 18.1351 28.7697C19.0919 27.5142 19.5954 25.9497 19.6206 24.0748H19.5602ZM14.323 19.9086C15.0465 19.9421 15.6558 20.3383 16.1409 21.1121C16.6193 21.8859 16.8711 22.8662 16.8711 24.053C16.8711 25.2632 16.621 26.2468 16.1409 27.0257C15.6357 27.8046 15.0331 28.2074 14.3012 28.2074C13.5694 28.2074 12.9668 27.8281 12.4632 27.0492C11.9596 26.2703 11.733 25.2867 11.733 24.105C11.733 22.9216 11.9596 21.938 12.4632 21.1843C12.9399 20.4289 13.5475 20.0261 14.2777 19.974L14.323 19.9086Z" fill="black"/>
</svg>
