<svg width="61" height="61" viewBox="0 0 61 61" fill="none" xmlns="http://www.w3.org/2000/svg">
<g clip-path="url(#clip0_45_221)">
<path d="M30.5 61C47.3447 61 61 47.3447 61 30.5C61 13.6553 47.3447 0 30.5 0C13.6553 0 0 13.6553 0 30.5C0 47.3447 13.6553 61 30.5 61Z" fill="black"/>
<path d="M38.6528 26.7733C36.7263 18.2708 32.1733 15.4752 31.6831 14.4071C31.1469 13.6535 30.6036 12.3132 30.6036 12.3132C30.5947 12.2905 30.5804 12.2506 30.5637 12.2119C30.5083 12.9655 30.4797 13.2562 29.7673 14.0163C28.664 14.8789 23.0037 19.6284 22.5432 29.2883C22.1137 38.2978 29.0512 43.6662 29.9895 44.3507L30.0961 44.4263V44.4198C30.1021 44.4651 30.394 46.5643 30.5989 48.7887H31.334C31.5065 47.2164 31.765 45.6547 32.1084 44.1106L32.168 44.0719C32.5877 43.771 32.9878 43.4437 33.3659 43.092L33.4088 43.0532C35.4032 41.2107 38.9888 36.9491 38.9536 30.1545C38.9462 29.0211 38.8456 27.8902 38.6528 26.7733ZM30.5208 39.264C30.5208 39.264 30.5208 26.6279 30.9378 26.6303C31.2631 26.6303 31.6843 42.9293 31.6843 42.9293C31.1052 42.8596 30.5208 40.2469 30.5208 39.264Z" fill="white"/>
</g>
<defs>
<clipPath id="clip0_45_221">
<rect width="61" height="61" fill="white"/>
</clipPath>
</defs>
</svg>
