<svg width="62" height="61" viewBox="0 0 62 61" fill="none" xmlns="http://www.w3.org/2000/svg">
<g clip-path="url(#clip0_37_179)">
<path d="M29.0024 0.0164153C28.8713 0.0283393 28.4539 0.0700731 28.0782 0.099883C19.4142 0.880902 11.2987 5.55509 6.15875 12.7393C3.29658 16.7338 1.46598 21.2649 0.774291 26.0643C0.529814 27.7396 0.5 28.2345 0.5 30.506C0.5 32.7775 0.529814 33.2723 0.774291 34.9476C2.43196 46.4006 10.5832 56.0232 21.6383 59.5885C23.618 60.2264 25.705 60.6617 28.0782 60.924C29.0024 61.0253 32.9976 61.0253 33.9218 60.924C38.0183 60.4709 41.4887 59.4573 44.9113 57.7105C45.4361 57.4422 45.5374 57.3706 45.4659 57.311C45.4182 57.2753 43.1821 54.2764 40.4988 50.6515L35.6212 44.0635L29.5093 35.0192C26.1462 30.0469 23.3795 25.9808 23.3556 25.9808C23.3318 25.9749 23.3079 29.9932 23.296 34.8999C23.2781 43.4912 23.2721 43.837 23.1648 44.0397C23.0098 44.3318 22.8905 44.451 22.6401 44.5822C22.4493 44.6776 22.2823 44.6955 21.3819 44.6955H20.3503L20.076 44.5226C19.8972 44.4093 19.766 44.2603 19.6765 44.0874L19.5513 43.8191L19.5632 31.8653L19.5811 19.9056L19.766 19.6731C19.8614 19.5479 20.0641 19.3869 20.2072 19.3094C20.4517 19.1901 20.5471 19.1782 21.5787 19.1782C22.7951 19.1782 22.9979 19.2259 23.3139 19.5717C23.4033 19.6671 26.7127 24.6513 30.672 30.655C34.6314 36.6587 40.0457 44.8565 42.7051 48.8808L47.535 56.1961L47.7795 56.0352C49.944 54.6281 52.2337 52.6249 54.0464 50.5382C57.9044 46.1085 60.3909 40.7069 61.2257 34.9476C61.4702 33.2723 61.5 32.7775 61.5 30.506C61.5 28.2345 61.4702 27.7396 61.2257 26.0643C59.568 14.6113 51.4168 4.98871 40.3617 1.42344C38.4118 0.791472 36.3368 0.356248 34.0112 0.093921C33.4388 0.0343013 29.4974 -0.0312805 29.0024 0.0164153ZM41.4887 18.4628C41.7749 18.6059 42.0074 18.8801 42.0909 19.1663C42.1386 19.3213 42.1505 22.6362 42.1386 30.1065L42.1207 40.8262L40.2305 37.9286L38.3343 35.0311V27.2388C38.3343 22.2009 38.3582 19.369 38.3939 19.2319C38.4893 18.898 38.698 18.6357 38.9843 18.4807C39.2287 18.3555 39.3182 18.3435 40.2543 18.3435C41.1369 18.3435 41.2919 18.3555 41.4887 18.4628Z" fill="black"/>
</g>
<defs>
<clipPath id="clip0_37_179">
<rect width="61" height="61" fill="white" transform="translate(0.5)"/>
</clipPath>
</defs>
</svg>
