<svg width="120" height="77" viewBox="0 0 120 77" fill="none" xmlns="http://www.w3.org/2000/svg">
<path d="M20.2243 40.5937C20.2243 40.2404 20.0383 39.9131 19.7334 39.7384L11.5819 35.049C11.4443 34.9672 11.2881 34.9263 11.1319 34.9189C11.117 34.9189 11.0575 34.9189 11.0464 34.9189C10.8902 34.9263 10.7377 34.9672 10.5964 35.049L2.44863 39.7384C2.14369 39.9131 1.95403 40.2404 1.95403 40.5937L1.97262 53.2225C1.97262 53.3973 2.06559 53.5609 2.21806 53.6465C2.37053 53.7357 2.55647 53.7357 2.70894 53.6465L7.55075 50.8723C7.85569 50.6901 8.04163 50.3703 8.04163 50.017V44.1153C8.04163 43.7658 8.22757 43.4385 8.5325 43.2637L10.5964 42.0775C10.7489 41.9882 10.9162 41.9473 11.091 41.9473C11.2584 41.9473 11.4294 41.9919 11.5819 42.0775L13.6421 43.2637C13.947 43.4385 14.1329 43.7658 14.1329 44.1153V50.017C14.1329 50.3703 14.3226 50.6901 14.6275 50.8723L19.4694 53.6465C19.6218 53.7357 19.8115 53.7357 19.9602 53.6465C20.109 53.5609 20.2057 53.3973 20.2057 53.2225L20.2243 40.5937ZM63.7411 23.2308C63.5886 23.1453 63.4027 23.149 63.2539 23.2383C63.1052 23.3275 63.0122 23.4874 63.0122 23.6622V36.1684C63.0122 36.2911 62.9453 36.4064 62.8412 36.4659C62.737 36.5254 62.6032 36.5291 62.4953 36.4659L60.4537 35.2907C60.1488 35.116 59.7732 35.116 59.4683 35.2907L51.3168 39.995C51.0118 40.1697 50.8222 40.497 50.8222 40.8465V50.2587C50.8222 50.612 51.0081 50.9355 51.313 51.1103L59.4645 55.8182C59.7695 55.993 60.1451 55.993 60.45 55.8182L68.6052 51.1103C68.9102 50.9318 69.0961 50.6083 69.0961 50.2587V26.7971C69.0961 26.4401 68.9027 26.1129 68.5904 25.9381L63.7374 23.2308H63.7411ZM62.9862 47.1684C62.9862 47.2577 62.9416 47.3395 62.8635 47.3804L60.0633 48.9943C59.9889 49.039 59.8922 49.039 59.8178 48.9943L57.0176 47.3804C56.9395 47.3358 56.8949 47.2539 56.8949 47.1684V43.9368C56.8949 43.8476 56.9432 43.7658 57.0176 43.7249L59.8178 42.1072C59.8922 42.0626 59.9889 42.0626 60.0633 42.1072L62.8635 43.7249C62.9379 43.7695 62.9862 43.8513 62.9862 43.9368V47.1684ZM92.911 43.8513C93.2122 43.6765 93.4019 43.353 93.4019 42.9997V40.7201C93.4019 40.3668 93.2159 40.047 92.911 39.8685L84.8116 35.1643C84.5066 34.9858 84.131 34.9858 83.8261 35.1643L75.6746 39.8685C75.3696 40.0433 75.1837 40.3705 75.1837 40.7201V50.1285C75.1837 50.4818 75.3734 50.8091 75.682 50.9839L83.7815 55.5988C84.079 55.7699 84.4471 55.7699 84.7483 55.6025L89.6459 52.8804C89.7984 52.7949 89.8951 52.6313 89.8988 52.4528C89.9025 52.2743 89.8058 52.1106 89.6534 52.0214L81.4498 47.3135C81.2973 47.2279 81.2044 47.0643 81.2044 46.8858V43.9368C81.2044 43.762 81.2973 43.5984 81.4498 43.5092L84.0046 42.0403C84.1571 41.9547 84.343 41.9547 84.4955 42.0403L87.0502 43.5092C87.2027 43.5984 87.2957 43.7583 87.2957 43.9368V46.2573C87.2957 46.4321 87.3887 46.5957 87.5411 46.685C87.6936 46.7742 87.8832 46.7705 88.0357 46.685L92.9147 43.8476L92.911 43.8513ZM35.0509 35.116C35.3559 34.9412 35.7315 34.9412 36.0364 35.116L44.1879 39.8202C44.4928 39.995 44.6788 40.3185 44.6788 40.6718V50.0876C44.6788 50.4409 44.4891 50.7644 44.1879 50.9392L36.0364 55.6472C35.7315 55.8219 35.3559 55.8219 35.0509 55.6472L26.8994 50.9392C26.5945 50.7644 26.4085 50.4372 26.4085 50.0876V40.6718C26.4085 40.3185 26.5945 39.995 26.8994 39.8202L35.0509 35.116ZM108.738 55.781C108.459 55.781 108.176 55.7067 107.931 55.5654L105.365 54.0481C104.982 53.8324 105.172 53.758 105.294 53.7134C105.804 53.5349 105.908 53.494 106.455 53.1854C106.51 53.1519 106.589 53.1668 106.648 53.2002L108.619 54.3716C108.69 54.4125 108.79 54.4125 108.857 54.3716L116.544 49.9352C116.614 49.8943 116.659 49.8124 116.659 49.7269V40.854C116.659 40.7685 116.614 40.6866 116.54 40.642L108.857 36.2093C108.786 36.1684 108.69 36.1684 108.619 36.2093L100.936 40.642C100.862 40.6829 100.813 40.7685 100.813 40.854V49.7269C100.813 49.8124 100.862 49.8905 100.932 49.9314L103.037 51.1475C104.179 51.7202 104.878 51.0471 104.878 50.3703V41.6126C104.878 41.4899 104.978 41.3932 105.101 41.3932H106.075C106.198 41.3932 106.299 41.4899 106.299 41.6126V50.3703C106.299 51.8949 105.469 52.7689 104.023 52.7689C103.58 52.7689 103.227 52.7689 102.253 52.2891L100.237 51.1289C99.7386 50.8425 99.43 50.3033 99.43 49.7269V40.854C99.43 40.2776 99.7386 39.7384 100.237 39.452L107.924 35.0118C108.411 34.7366 109.058 34.7366 109.538 35.0118L117.224 39.452C117.723 39.7384 118.031 40.2776 118.031 40.854V49.7269C118.031 50.3033 117.723 50.8388 117.224 51.1289L109.538 55.5654C109.292 55.7067 109.013 55.781 108.727 55.781H108.738ZM111.114 49.6711C107.749 49.6711 107.046 48.1279 107.046 46.83C107.046 46.7073 107.143 46.6106 107.269 46.6106H108.262C108.374 46.6106 108.467 46.6924 108.481 46.8003C108.63 47.8118 109.076 48.325 111.114 48.325C112.732 48.325 113.424 47.9568 113.424 47.1015C113.424 46.6069 113.23 46.2387 110.713 45.9933C108.612 45.785 107.31 45.3202 107.31 43.6393C107.31 42.0886 108.619 41.1626 110.809 41.1626C113.271 41.1626 114.491 42.018 114.643 43.8513C114.651 43.9145 114.629 43.974 114.584 44.0224C114.539 44.0707 114.483 44.093 114.42 44.093H113.424C113.32 44.093 113.23 44.0186 113.208 43.9182C112.97 42.8547 112.386 42.5125 110.809 42.5125C109.043 42.5125 108.835 43.1299 108.835 43.591C108.835 44.1525 109.076 44.3124 111.464 44.6285C113.825 44.9409 114.948 45.3834 114.948 47.042C114.948 48.7154 113.554 49.6749 111.118 49.6749L111.114 49.6711ZM84.1942 43.4125C84.2537 43.379 84.3244 43.379 84.3839 43.4125L85.9495 44.3161C86.009 44.3496 86.0462 44.4128 86.0462 44.4798V46.2871C86.0462 46.354 86.009 46.4172 85.9495 46.4507L84.3839 47.3544C84.3244 47.3878 84.2537 47.3878 84.1942 47.3544L82.6324 46.4507C82.5729 46.4172 82.5394 46.354 82.5394 46.2871V44.4798C82.5394 44.4128 82.5766 44.3496 82.6324 44.3161L84.1942 43.4125Z" fill="#444444"/>
</svg>
