<svg width="62" height="61" viewBox="0 0 62 61" fill="none" xmlns="http://www.w3.org/2000/svg">
<g clip-path="url(#clip0_37_189)">
<path d="M37.222 41.2766C35.861 43.2119 34.3779 45.0584 32.7817 46.8047C37.0314 50.9299 40.9862 52.8615 43.1771 51.5932C45.3731 50.3275 45.6756 45.938 44.2294 40.1964C42.0613 40.6793 39.7052 41.0453 37.222 41.2766ZM33.8924 41.4977C31.965 41.5775 30.035 41.5775 28.1076 41.4977C29.0658 42.7482 30.0342 43.9072 31 44.9646C31.9658 43.9072 32.9317 42.7482 33.8924 41.4977ZM46.7024 21.4338C53.4759 23.3757 57.8985 26.6036 57.8985 30.5C57.8985 34.3963 53.4759 37.6242 46.7024 39.5661C48.4053 46.4032 47.8233 51.8474 44.4505 53.7943C41.0752 55.7438 36.0681 53.5275 31 48.6347C25.9319 53.5275 20.9248 55.7438 17.5495 53.7943C14.1767 51.8474 13.5921 46.4032 15.2976 39.5661C8.52403 37.6242 4.10153 34.3963 4.10153 30.5C4.10153 26.6036 8.52403 23.3757 15.2976 21.4338C13.5947 14.5967 14.1767 9.15249 17.5495 7.20558C20.9248 5.25612 25.9319 7.47245 31 12.3652C36.0681 7.47245 41.0752 5.25612 44.4505 7.20558C47.8233 9.15249 48.4079 14.5967 46.7024 21.4338ZM44.2294 20.8035C45.6781 15.0593 45.3731 10.6724 43.1797 9.40666C40.9862 8.13837 37.0314 10.07 32.7842 14.1952C34.2864 15.8295 35.7809 17.6874 37.222 19.7233C39.7077 19.952 42.0613 20.318 44.2294 20.8035ZM17.7706 40.1964C16.3219 45.9406 16.6269 50.3275 18.8203 51.5932C21.0138 52.8615 24.9686 50.9299 29.2157 46.8047C27.6204 45.0583 26.1382 43.2118 24.778 41.2766C22.4216 41.066 20.081 40.7052 17.7706 40.1964ZM28.1076 19.5022C30.035 19.4224 31.965 19.4224 33.8924 19.5022C32.9787 18.3062 32.0137 17.1504 31 16.0379C30.0342 17.0952 29.0683 18.2517 28.1076 19.5022ZM24.778 19.7233C26.1398 17.7879 27.6238 15.9415 29.2208 14.1952C24.9686 10.07 21.0112 8.13837 18.8229 9.40666C16.6269 10.6724 16.3244 15.0619 17.7706 20.8035C19.9387 20.3206 22.2948 19.9546 24.778 19.7233ZM35.8139 38.8366C37.6232 36.1815 39.2314 33.3948 40.6253 30.5C39.2314 27.6051 37.6232 24.8184 35.8139 22.1633C32.6091 21.9233 29.3909 21.9233 26.1861 22.1633C24.3768 24.8184 22.7685 27.6051 21.3747 30.5C22.7685 33.3948 24.3768 36.1815 26.1861 38.8366C29.3909 39.0766 32.6091 39.0766 35.8139 38.8366ZM39.0774 38.5037C40.6405 38.3003 42.1274 38.0385 43.5253 37.731C43.0682 36.2969 42.5492 34.8833 41.9698 33.494C41.0751 35.2022 40.1102 36.8727 39.0774 38.5011V38.5037ZM22.9226 22.4937C21.3594 22.697 19.8726 22.9588 18.4747 23.2664C18.9067 24.6287 19.4252 26.047 20.0302 27.5033C20.9248 25.7951 21.8898 24.1221 22.9226 22.4937ZM18.4747 37.7285C19.8726 38.036 21.3594 38.2952 22.9226 38.5011C21.8898 36.8727 20.9248 35.2022 20.0302 33.494C19.4252 34.9479 18.9067 36.3661 18.4747 37.7285ZM15.9889 37.1057C16.6523 34.986 17.5139 32.7646 18.556 30.4974C17.5139 28.2302 16.6523 26.0088 15.9889 23.8891C10.2905 25.5081 6.6432 27.9659 6.6432 30.4974C6.6432 33.0289 10.2905 35.4867 15.9889 37.1057ZM43.5253 23.2664C42.1274 22.9588 40.6405 22.6996 39.0774 22.4937C40.1102 24.1221 41.0751 25.7926 41.9698 27.5008C42.5747 26.047 43.0932 24.6287 43.5253 23.2664ZM46.0111 23.8891C45.3477 26.0088 44.4861 28.2302 43.444 30.4974C44.4861 32.7646 45.3477 34.986 46.0111 37.1057C51.7095 35.4867 55.3568 33.0289 55.3568 30.4974C55.3568 27.9659 51.7095 25.5081 46.0111 23.8891ZM31 35.2783C30.3725 35.2783 29.7511 35.1547 29.1714 34.9146C28.5917 34.6744 28.0649 34.3225 27.6212 33.8787C27.1775 33.435 26.8255 32.9083 26.5854 32.3285C26.3453 31.7488 26.2217 31.1275 26.2217 30.5C26.2217 29.8725 26.3453 29.2511 26.5854 28.6714C26.8255 28.0916 27.1775 27.5649 27.6212 27.1212C28.0649 26.6775 28.5917 26.3255 29.1714 26.0853C29.7511 25.8452 30.3725 25.7216 31 25.7216C32.2673 25.7216 33.4827 26.2251 34.3788 27.1212C35.2749 28.0173 35.7783 29.2327 35.7783 30.5C35.7783 31.7672 35.2749 32.9826 34.3788 33.8787C33.4827 34.7749 32.2673 35.2783 31 35.2783Z" fill="black"/>
</g>
<defs>
<clipPath id="clip0_37_189">
<rect width="61" height="61" fill="white" transform="translate(0.5)"/>
</clipPath>
</defs>
</svg>
