<svg width="62" height="61" viewBox="0 0 62 61" fill="none" xmlns="http://www.w3.org/2000/svg">
<path fill-rule="evenodd" clip-rule="evenodd" d="M31 15.3416C24.2214 15.3416 19.987 18.7093 18.2917 25.4472C20.8333 22.0795 23.7995 20.8163 27.1875 21.6576C29.1217 22.138 30.5044 23.5333 32.0319 25.0761C34.5253 27.5898 37.4101 30.5001 43.7083 30.5001C50.487 30.5001 54.7214 27.1323 56.4167 20.3944C53.875 23.7621 50.9114 25.0253 47.5208 24.184C45.5866 23.7036 44.204 22.3083 42.6739 20.7655C40.1831 18.2492 37.3008 15.3416 31 15.3416ZM18.2917 30.5001C11.5131 30.5001 7.27864 33.8678 5.58334 40.6057C8.12501 37.2355 11.0911 35.9748 14.4792 36.8161C16.4134 37.2965 17.7961 38.6918 19.3261 40.2346C21.817 42.7483 24.7018 45.6586 31.0026 45.6586C37.7812 45.6586 42.0156 42.2908 43.7109 35.5529C41.1692 38.9206 38.2031 40.1838 34.8151 39.3425C32.8808 38.8621 31.4982 37.4668 29.9706 35.924C27.4747 33.4103 24.5899 30.5001 18.2917 30.5001Z" fill="black"/>
</svg>
