<svg width="48" height="48" viewBox="0 0 48 48" fill="none" xmlns="http://www.w3.org/2000/svg">
<g clip-path="url(#clip0_45_285)">
<path fill-rule="evenodd" clip-rule="evenodd" d="M15.2815 42.7995C33.0169 42.7995 42.7178 28.3318 42.7178 15.7871C42.7178 15.3753 42.7177 14.9665 42.6895 14.5593C44.5766 13.2174 46.2051 11.5512 47.5 9.64473C45.7422 10.4129 43.8739 10.9166 41.9634 11.1387C43.975 9.95181 45.4813 8.0871 46.2028 5.8868C44.3087 6.99273 42.2383 7.77325 40.0787 8.19205C36.4268 4.36984 30.3191 4.18466 26.4346 7.78011C23.9319 10.0984 22.8673 13.555 23.6451 16.8519C15.8925 16.4679 8.6686 12.8632 3.7712 6.93328C1.21205 11.2714 2.521 16.819 6.75805 19.6047C5.2235 19.5607 3.72185 19.154 2.38 18.4182V18.5387C2.38235 23.0573 5.6183 26.9481 10.1162 27.8435C8.6968 28.2252 7.2069 28.2806 5.764 28.0053C7.02595 31.8737 10.6473 34.5234 14.7715 34.5997C11.357 37.2419 7.13875 38.6767 2.79595 38.6721C2.02985 38.6697 1.26375 38.6257 0.5 38.5355C4.91095 41.3212 10.041 42.7995 15.2815 42.7926" fill="black"/>
</g>
<defs>
<clipPath id="clip0_45_285">
<rect width="47" height="47" fill="white" transform="translate(0.5 0.5)"/>
</clipPath>
</defs>
</svg>
